<svg width="134" height="47" viewBox="0 0 134 47" fill="none" xmlns="http://www.w3.org/2000/svg">
<g opacity="0.8">
<mask id="mask0_1601_24870" style="mask-type:luminance" maskUnits="userSpaceOnUse" x="0" y="0" width="40" height="27">
<path d="M39.5427 0H0.36499V26.352H39.5427V0Z" fill="white"/>
</mask>
<g mask="url(#mask0_1601_24870)">
<path d="M4.59666 17.3841C4.59666 18.9018 4.92499 20.0621 5.35416 20.7656C5.58286 21.1663 5.9122 21.4984 6.30871 21.7285C6.70521 21.9584 7.15477 22.0781 7.6117 22.075C8.71524 22.075 9.7248 21.799 11.6703 19.0728C13.2289 16.8888 15.0655 13.83 16.3025 11.8985L18.3952 8.64238C19.8489 6.38107 21.5288 3.86728 23.4606 2.15784C25.0343 0.772627 26.7332 0 28.4431 0C31.3136 0 34.048 1.6846 36.1406 4.8441C38.431 8.30437 39.5469 12.6628 39.5469 17.1606C39.5469 19.8344 39.0263 21.799 38.1407 23.3512C37.2864 24.8523 35.6134 26.352 32.8083 26.352V22.075C35.2103 22.075 35.8055 19.84 35.8055 17.282C35.8055 13.6369 34.9663 9.59162 33.1175 6.70116C31.8054 4.65095 30.1052 3.39818 28.2346 3.39818C26.2115 3.39818 24.5833 4.94344 22.7536 7.69867C21.7809 9.16253 20.7821 10.9465 19.6609 12.9594L18.4266 15.1669C15.947 19.6192 15.3189 20.6334 14.0791 22.3069C11.9101 25.2483 10.0545 26.352 7.6117 26.352C4.71383 26.352 2.88137 25.0814 1.75329 23.1665C0.820036 21.6059 0.36499 19.5585 0.36499 17.2254L4.59666 17.3841Z" fill="#0081FB"/>
<path d="M3.69879 5.14625C5.63889 2.11782 8.43865 0 11.6499 0C13.5096 0 15.3584 0.551877 17.2889 2.1537C19.4007 3.899 21.6486 6.77291 24.4593 11.5094L25.4662 13.2092C27.8967 17.3096 29.2809 19.4178 30.0887 20.4139C31.1297 21.6916 31.86 22.0695 32.8055 22.0695C35.2075 22.0695 35.8028 19.8344 35.8028 17.2765L39.5358 17.1578C39.5358 19.8317 39.0154 21.7964 38.1298 23.3485C37.2837 24.8523 35.6106 26.352 32.8055 26.352C31.0616 26.352 29.5165 25.9686 27.8081 24.3364C26.4948 23.0836 24.9592 20.8581 23.7782 18.8576L20.2644 12.9139C18.5015 9.93103 16.8843 7.70695 15.9483 6.7053C14.9401 5.61672 13.6472 4.30877 11.5817 4.30877C9.91006 4.30877 8.49042 5.49668 7.30238 7.31375L3.69879 5.14625Z" fill="url(#paint0_linear_1601_24870)"/>
<path d="M11.5845 4.30877C9.9128 4.30877 8.49317 5.49669 7.30515 7.31375C5.62527 9.88134 4.59666 13.7058 4.59666 17.3841C4.59666 18.9018 4.92499 20.0621 5.35416 20.7656L1.74648 23.1665C0.820036 21.6059 0.36499 19.5585 0.36499 17.2254C0.36499 12.9829 1.51487 8.56098 3.70156 5.14625C5.64163 2.11782 8.4414 0 11.6526 0L11.5845 4.30877Z" fill="url(#paint1_linear_1601_24870)"/>
</g>
<path d="M52.103 0.933105H57.0178L65.3051 15.5353L73.5931 0.933105H78.4113V24.8956H74.4602V6.54933L67.2325 19.2794H63.4742L56.15 6.54933V24.8956H52.1993V0.933105H52.103Z" fill="#101828"/>
<path d="M91.2352 25.3665C89.4043 25.3665 87.766 24.9921 86.4168 24.1496C84.9713 23.4007 83.9109 22.2775 83.1399 20.8734C82.3689 19.4694 81.9838 17.8782 81.9838 16.0061C81.9838 14.1341 82.3689 12.5428 83.1399 11.1387C83.9109 9.73467 84.9711 8.61143 86.3204 7.86259C87.6695 7.02016 89.2113 6.64575 91.0423 6.64575C92.7769 6.64575 94.3189 7.02016 95.5719 7.86259C96.8246 8.70503 97.7884 9.82825 98.463 11.2323C99.1374 12.6364 99.5226 14.4149 99.5226 16.2869V17.3165H86.031C86.32 18.8142 86.8986 19.9375 87.8624 20.7799C88.826 21.6224 90.0787 21.9968 91.5242 21.9968C92.6805 21.9968 93.7409 21.8096 94.6081 21.5287C95.4755 21.1543 96.2465 20.6862 97.0173 19.9374L99.1372 22.4647C96.9207 24.4305 94.3189 25.3665 91.2352 25.3665ZM94.1264 11.1387C93.259 10.2963 92.1986 9.92187 90.8493 9.92187C89.5002 9.92187 88.4403 10.3899 87.5729 11.2323C86.7057 12.0747 86.1276 13.198 85.9349 14.6021H95.6678C95.4751 13.1044 94.9936 11.9811 94.1264 11.1387Z" fill="#101828"/>
<path d="M104.24 10.2046H100.578V7.02206H104.24V1.78027H108.095V7.02206H113.684V10.2046H108.095V18.2545C108.095 19.5649 108.288 20.501 108.77 21.1562C109.251 21.7178 110.022 21.9987 111.179 21.9987C111.661 21.9987 112.143 21.9987 112.432 21.905C112.817 21.905 113.203 21.8115 113.588 21.7178V24.8068C113.106 24.9003 112.624 24.994 112.142 25.0875C111.564 25.1812 110.986 25.1812 110.408 25.1812C106.264 25.1812 104.144 22.9347 104.144 18.5353L104.24 10.2046Z" fill="#101828"/>
<path d="M133.635 24.8981H129.876V22.3707C129.202 23.3067 128.335 24.0556 127.275 24.5237C126.214 24.9918 125.058 25.2725 123.709 25.2725C122.07 25.2725 120.625 24.8981 119.372 24.0556C118.119 23.2132 117.156 22.1835 116.385 20.7796C115.71 19.3755 115.325 17.7842 115.325 15.9121C115.325 14.1337 115.71 12.4488 116.385 11.0447C117.156 9.64067 118.119 8.51743 119.372 7.7686C120.625 6.92616 122.167 6.55176 123.805 6.55176C125.058 6.55176 126.214 6.83256 127.178 7.30057C128.142 7.7686 129.009 8.42385 129.684 9.26629V7.01979H133.442L133.635 24.8981ZM129.78 13.2912C129.395 12.2616 128.72 11.5128 127.853 10.8576C126.985 10.2959 125.925 10.0151 124.769 10.0151C123.131 10.0151 121.781 10.5768 120.818 11.6064C119.854 12.636 119.372 14.1337 119.372 15.9121C119.372 17.7842 119.854 19.1883 120.818 20.3115C121.781 21.3412 123.034 21.9028 124.672 21.9028C125.829 21.9028 126.889 21.6219 127.853 20.9668C128.816 20.4051 129.491 19.5627 129.876 18.533L129.78 13.2912Z" fill="#101828"/>
<path d="M0.36499 34.8071H5.36249C6.74279 34.8071 7.78989 35.081 8.50389 35.6288C9.21779 36.1767 9.55099 36.9071 9.55099 37.8658C9.55099 39.144 8.88469 40.0114 7.59959 40.4679C9.31299 40.8787 10.1221 41.8374 10.1221 43.3439C10.1221 44.3482 9.74129 45.1243 8.97979 45.7178C8.21829 46.2656 7.12369 46.5851 5.74339 46.5851H0.36499V34.8071ZM5.12449 39.8287C6.74279 39.8287 7.55189 39.2809 7.55189 38.1396C7.55189 37.5918 7.36149 37.181 6.98069 36.9071C6.59989 36.6332 6.02889 36.4962 5.21979 36.4962H2.31639V39.8287H5.12449ZM5.69579 44.8504C7.31399 44.8504 8.12319 44.2569 8.12319 43.1156C8.12319 42.5678 7.93269 42.1569 7.55189 41.883C7.17119 41.6091 6.50479 41.4722 5.55279 41.4722H2.31639V44.8504H5.69579Z" fill="#101828"/>
<path d="M19.5461 46.4945H17.6896V45.262C16.9757 46.2206 16.024 46.7228 14.7865 46.7228C13.7394 46.7228 12.8826 46.4032 12.3115 45.7641C11.7403 45.125 11.4548 44.2119 11.4548 42.9794V37.8208H13.3586V42.7967C13.3586 43.6185 13.5014 44.2119 13.787 44.5772C14.0725 44.9424 14.5484 45.1706 15.1672 45.1706C15.6907 45.1706 16.2143 45.0337 16.6427 44.7598C17.071 44.4859 17.4043 44.1206 17.6422 43.6185V37.8664H19.5461V46.4945Z" fill="#101828"/>
<path d="M27.8764 45.9921C27.21 46.4943 26.3056 46.7225 25.1633 46.7225C24.2114 46.7225 23.3548 46.5399 22.6409 46.2203C21.9269 45.9008 21.4032 45.4443 21.0701 44.8965L22.3552 43.8464C22.6408 44.2573 22.9739 44.5313 23.4498 44.7595C23.9258 44.9878 24.4969 45.0791 25.1157 45.0791C26.3056 45.0791 26.9244 44.7595 26.9244 44.0747C26.9244 43.8008 26.8292 43.5725 26.6388 43.3899C26.4484 43.2073 26.1152 43.0704 25.6393 43.0247L23.8781 42.7508C23.069 42.6139 22.4027 42.34 21.9743 41.9291C21.546 41.5183 21.308 40.9704 21.308 40.2857C21.308 39.464 21.6413 38.8249 22.3076 38.3227C22.9739 37.8205 23.8783 37.5923 25.0206 37.5923C25.8297 37.5923 26.5911 37.7749 27.2575 38.0944C27.9238 38.414 28.3998 38.8248 28.733 39.3727L27.4004 40.3313C27.1624 39.9661 26.8292 39.6922 26.4008 39.5096C25.9725 39.327 25.4488 39.1901 24.8777 39.1901C24.3541 39.1901 23.9257 39.2814 23.6402 39.464C23.3546 39.6466 23.2119 39.8748 23.2119 40.1944C23.2119 40.4683 23.3071 40.6965 23.4975 40.8335C23.6879 40.9704 23.9734 41.1074 24.4017 41.1531L26.3532 41.4726C27.1623 41.6096 27.7334 41.8835 28.1617 42.34C28.5901 42.7965 28.7806 43.3443 28.7806 43.9834C28.8758 44.8052 28.5427 45.4899 27.8764 45.9921Z" fill="#101828"/>
<path d="M30.589 36.315C30.351 36.0868 30.256 35.8129 30.256 35.4933C30.256 35.1281 30.351 34.8542 30.589 34.6716C30.827 34.4434 31.112 34.3521 31.493 34.3521C31.874 34.3521 32.159 34.4434 32.397 34.6716C32.635 34.8999 32.73 35.1738 32.73 35.4933C32.73 35.8129 32.635 36.1324 32.397 36.315C32.159 36.4976 31.874 36.6346 31.493 36.6346C31.112 36.6346 30.827 36.5433 30.589 36.315ZM30.541 37.8215H32.445V46.5409H30.541V37.8215Z" fill="#101828"/>
<path d="M34.5399 37.8218H36.3959V39.1C37.1099 38.0957 38.0609 37.6392 39.3469 37.6392C40.4409 37.6392 41.2499 37.9587 41.8219 38.5978C42.3929 39.2369 42.6779 40.15 42.6779 41.3825V46.541H40.7739V41.5651C40.7739 40.7434 40.6319 40.15 40.2979 39.7848C40.0129 39.4196 39.5369 39.1913 38.8709 39.1913C38.2989 39.1913 37.8239 39.3282 37.3949 39.6022C36.9669 39.8761 36.6339 40.2869 36.3959 40.7891V46.541H34.4919V37.8218H34.5399Z" fill="#101828"/>
<path d="M48.721 46.7235C47.817 46.7235 47.008 46.5409 46.342 46.13C45.628 45.7648 45.104 45.217 44.723 44.5322C44.343 43.8474 44.152 43.0714 44.152 42.1584C44.152 41.2453 44.343 40.4693 44.723 39.7845C45.104 39.0997 45.628 38.5519 46.294 38.1867C46.96 37.7759 47.722 37.5933 48.626 37.5933C49.483 37.5933 50.244 37.7759 50.863 38.1867C51.482 38.5976 51.958 39.1454 52.291 39.8301C52.624 40.5149 52.815 41.3823 52.815 42.2953V42.7975H46.151C46.294 43.5279 46.58 44.0757 47.055 44.4866C47.531 44.8975 48.15 45.0801 48.864 45.0801C49.435 45.0801 49.959 44.9888 50.387 44.8518C50.816 44.6692 51.196 44.4409 51.577 44.0757L52.624 45.3083C51.53 46.267 50.244 46.7235 48.721 46.7235ZM50.197 39.7845C49.768 39.3736 49.245 39.191 48.579 39.191C47.912 39.191 47.389 39.4193 46.96 39.8301C46.532 40.241 46.246 40.7888 46.151 41.4736H50.958C50.816 40.7432 50.578 40.1954 50.197 39.7845Z" fill="#101828"/>
<path d="M60.527 45.9921C59.86 46.4943 58.956 46.7225 57.814 46.7225C56.862 46.7225 56.005 46.5399 55.291 46.2203C54.577 45.9008 54.054 45.4443 53.72 44.8965L55.006 43.8464C55.291 44.2573 55.624 44.5313 56.1 44.7595C56.576 44.9878 57.147 45.0791 57.766 45.0791C58.956 45.0791 59.575 44.7595 59.575 44.0747C59.575 43.8008 59.48 43.5725 59.289 43.3899C59.099 43.2073 58.766 43.0704 58.29 43.0247L56.529 42.7508C55.719 42.6139 55.053 42.34 54.625 41.9291C54.196 41.5183 53.958 40.9704 53.958 40.2857C53.958 39.464 54.292 38.8249 54.958 38.3227C55.624 37.8205 56.528 37.5923 57.671 37.5923C58.48 37.5923 59.242 37.7749 59.908 38.0944C60.574 38.414 61.05 38.8248 61.383 39.3727L60.051 40.3313C59.813 39.9661 59.48 39.6922 59.051 39.5096C58.623 39.327 58.099 39.1901 57.528 39.1901C57.005 39.1901 56.576 39.2814 56.291 39.464C56.005 39.6466 55.862 39.8748 55.862 40.1944C55.862 40.4683 55.957 40.6965 56.148 40.8335C56.338 40.9704 56.624 41.1074 57.052 41.1531L59.004 41.4726C59.813 41.6096 60.384 41.8835 60.812 42.34C61.24 42.7965 61.431 43.3443 61.431 43.9834C61.574 44.8052 61.24 45.4899 60.527 45.9921Z" fill="#101828"/>
<path d="M69.425 45.9921C68.759 46.4943 67.854 46.7225 66.712 46.7225C65.76 46.7225 64.903 46.5399 64.189 46.2203C63.476 45.9008 62.952 45.4443 62.619 44.8965L63.904 43.8464C64.189 44.2573 64.523 44.5313 64.999 44.7595C65.475 44.9878 66.046 45.0791 66.665 45.0791C67.854 45.0791 68.473 44.7595 68.473 44.0747C68.473 43.8008 68.378 43.5725 68.187 43.3899C67.997 43.2073 67.664 43.0704 67.188 43.0247L65.427 42.7508C64.618 42.6139 63.952 42.34 63.523 41.9291C63.095 41.5183 62.857 40.9704 62.857 40.2857C62.857 39.464 63.19 38.8249 63.856 38.3227C64.523 37.8205 65.427 37.5923 66.569 37.5923C67.378 37.5923 68.14 37.7749 68.806 38.0944C69.473 38.414 69.948 38.8248 70.282 39.3727L68.949 40.3313C68.711 39.9661 68.378 39.6922 67.949 39.5096C67.521 39.327 66.998 39.1901 66.427 39.1901C65.903 39.1901 65.475 39.2814 65.189 39.464C64.903 39.6466 64.761 39.8748 64.761 40.1944C64.761 40.4683 64.856 40.6965 65.046 40.8335C65.236 40.9704 65.522 41.1074 65.951 41.1531L67.902 41.4726C68.711 41.6096 69.282 41.8835 69.711 42.34C70.139 42.7965 70.329 43.3443 70.329 43.9834C70.424 44.8052 70.091 45.4899 69.425 45.9921Z" fill="#101828"/>
<path d="M74.472 34.8071H79.0891C80.6601 34.8071 81.8501 35.1267 82.7061 35.8115C83.5631 36.4962 83.9911 37.4549 83.9911 38.7331C83.9911 40.0114 83.5631 40.97 82.7061 41.6548C81.8501 42.3395 80.6601 42.6591 79.0891 42.6591H76.4711V46.4938H74.472V34.8071ZM78.946 40.97C79.946 40.97 80.707 40.7874 81.231 40.4222C81.707 40.057 81.9451 39.5092 81.9451 38.7788C81.9451 38.0027 81.707 37.4549 81.231 37.0897C80.755 36.7245 79.993 36.5419 78.994 36.5419H76.5191V40.97H78.946Z" fill="#101828"/>
<path d="M93.607 46.495H91.751V45.2624C91.418 45.7189 90.99 46.0841 90.466 46.3124C89.943 46.5407 89.371 46.6776 88.705 46.6776C87.896 46.6776 87.182 46.495 86.563 46.0841C85.945 45.6733 85.469 45.1711 85.088 44.4864C84.755 43.8016 84.564 43.0255 84.564 42.1125C84.564 41.2451 84.755 40.4234 85.088 39.7386C85.469 39.0538 85.945 38.506 86.563 38.1408C87.182 37.73 87.944 37.5474 88.753 37.5474C89.371 37.5474 89.943 37.6843 90.419 37.9126C90.895 38.1408 91.323 38.4604 91.656 38.8713V37.7756H93.512L93.607 46.495ZM91.704 40.8342C91.513 40.3321 91.18 39.9669 90.752 39.6473C90.323 39.3734 89.8 39.2365 89.229 39.2365C88.42 39.2365 87.753 39.5104 87.277 40.0125C86.801 40.5147 86.563 41.2451 86.563 42.1125C86.563 43.0255 86.801 43.7103 87.277 44.2581C87.753 44.7603 88.372 45.0342 89.181 45.0342C89.752 45.0342 90.276 44.8972 90.752 44.5777C91.228 44.3037 91.561 43.8928 91.751 43.3907L91.704 40.8342Z" fill="#101828"/>
<path d="M95.5081 37.8203H97.364V39.1442C97.888 38.1855 98.6491 37.729 99.6481 37.729C99.8391 37.729 100.029 37.729 100.22 37.7746V39.4637C100.029 39.4637 99.8391 39.4181 99.6481 39.4181C98.5541 39.4181 97.792 39.9202 97.459 40.9702V46.5397H95.5551L95.5081 37.8203Z" fill="#101828"/>
<path d="M102.597 39.3288H101.312V37.7767H102.597V35.2202H104.501V37.7767H107.262V39.3288H104.501V43.2548C104.501 43.8939 104.596 44.3504 104.834 44.67C105.072 44.9896 105.453 45.0809 106.024 45.0809C106.262 45.0809 106.5 45.0809 106.643 45.0352C106.833 45.0352 107.024 44.9896 107.214 44.9439V46.4504C106.976 46.496 106.738 46.5417 106.5 46.5873C106.215 46.633 105.929 46.633 105.643 46.633C103.597 46.633 102.55 45.5374 102.55 43.3917L102.597 39.3288Z" fill="#101828"/>
<path d="M108.739 37.8218H110.595V39.1C111.309 38.0957 112.261 37.6392 113.546 37.6392C114.641 37.6392 115.45 37.9587 116.021 38.5978C116.592 39.2369 116.878 40.15 116.878 41.3825V46.541H114.974V41.5651C114.974 40.7434 114.831 40.15 114.498 39.7848C114.212 39.4196 113.736 39.1913 113.07 39.1913C112.499 39.1913 112.023 39.3282 111.595 39.6022C111.166 39.8761 110.833 40.2869 110.595 40.7891V46.541H108.691V37.8218H108.739Z" fill="#101828"/>
<path d="M122.973 46.7225C122.069 46.7225 121.26 46.5399 120.593 46.129C119.88 45.7638 119.356 45.216 118.975 44.5313C118.595 43.8464 118.404 43.0704 118.404 42.1574C118.404 41.2444 118.595 40.4683 118.975 39.7835C119.356 39.0988 119.88 38.551 120.546 38.1857C121.212 37.7749 121.974 37.5923 122.878 37.5923C123.735 37.5923 124.496 37.7749 125.115 38.1857C125.734 38.5966 126.21 39.1444 126.543 39.8292C126.876 40.5139 127.067 41.3813 127.067 42.2943V42.7965H120.403C120.546 43.5269 120.831 44.0747 121.307 44.4856C121.783 44.8965 122.402 45.0791 123.116 45.0791C123.687 45.0791 124.211 44.9878 124.639 44.8508C125.067 44.6682 125.448 44.44 125.829 44.0747L126.876 45.3073C125.734 46.266 124.496 46.7225 122.973 46.7225ZM124.401 39.7835C123.973 39.3727 123.449 39.1901 122.783 39.1901C122.117 39.1901 121.593 39.4183 121.165 39.8292C120.736 40.24 120.451 40.7879 120.356 41.4726H125.163C125.068 40.7422 124.829 40.1944 124.401 39.7835Z" fill="#101828"/>
<path d="M128.586 37.8211H130.443V39.1449C131.014 38.1863 131.823 37.6841 132.822 37.6841C133.156 37.6841 133.441 37.7297 133.631 37.7754V39.4645C133.346 39.4188 133.06 39.4188 132.775 39.4188C131.632 39.4188 130.871 39.921 130.443 40.8797V46.5404H128.539L128.586 37.8211Z" fill="#101828"/>
</g>
<defs>
<linearGradient id="paint0_linear_1601_24870" x1="8.85555" y1="12.4931" x2="35.833" y2="13.8385" gradientUnits="userSpaceOnUse">
<stop stop-color="#0064E1"/>
<stop offset="0.4" stop-color="#0064E1"/>
<stop offset="0.83" stop-color="#0073EE"/>
<stop offset="1" stop-color="#0082FB"/>
</linearGradient>
<linearGradient id="paint1_linear_1601_24870" x1="6.00811" y1="19.1777" x2="6.00811" y2="9.10596" gradientUnits="userSpaceOnUse">
<stop stop-color="#0082FB"/>
<stop offset="1" stop-color="#0064E0"/>
</linearGradient>
</defs>
</svg>
